<?xml version="1.0" encoding="UTF-8"?>
<svg xmlns="http://www.w3.org/2000/svg" xmlns:xlink="http://www.w3.org/1999/xlink" viewBox="0 0 64 64" width="64px" height="64px">
<g id="surface4297765">
<path style=" stroke:none;fill-rule:nonzero;fill:rgb(9.019608%,12.941177%,32.941177%);fill-opacity:1;" d="M 31.996094 6 C 28.449219 6 11.070312 15.96875 9.316406 19.007812 C 7.558594 22.050781 7.558594 41.964844 9.316406 44.996094 C 11.078125 48.035156 28.457031 58 31.996094 58 C 35.523438 58 52.902344 48.039062 54.671875 45.003906 C 56.445312 41.960938 56.445312 22.027344 54.671875 18.996094 L 54.671875 18.992188 C 52.890625 15.957031 35.511719 6 31.996094 6 Z M 31.992188 10.023438 C 35.386719 10.730469 48.835938 18.433594 51.191406 21.019531 C 52.269531 24.300781 52.269531 39.6875 51.191406 42.976562 C 48.851562 45.558594 35.390625 53.273438 31.992188 53.976562 C 28.597656 53.277344 15.144531 45.566406 12.800781 42.980469 C 11.730469 39.683594 11.730469 24.3125 12.800781 21.019531 C 15.140625 18.433594 28.59375 10.722656 31.992188 10.023438 Z M 26 18 L 22 22 L 24 22 L 24 42 L 28 42 L 28 34 L 36 34 L 36 42 L 34 42 L 38 46 L 42 42 L 40 42 L 40 24 L 36 24 L 36 30 L 28 30 L 28 22 L 30 22 Z M 26 18 "/>
</g>
</svg>
